<svg width="159" height="50" viewBox="0 0 159 50" fill="none" xmlns="http://www.w3.org/2000/svg">
<rect width="159" height="50" fill="#1E1E1E"/>
<rect width="159" height="50" fill="#D10024"/>
<rect x="9" y="10" width="75" height="30" fill="white"/>
<path d="M19.5267 33.6977V14.9457H24.8227V29.4097H29.5907V33.6977H19.5267ZM40.5459 32.2737L40.3859 32.4497C40.2793 32.5777 40.1139 32.727 39.8899 32.8977C39.6766 33.0683 39.4259 33.239 39.1379 33.4097C38.8606 33.5803 38.5193 33.7243 38.1139 33.8417C37.7086 33.9697 37.2926 34.0337 36.8659 34.0337C33.9859 34.0337 32.5459 32.6097 32.5459 29.7617C32.5459 29.207 32.6473 28.7003 32.8499 28.2417C33.0526 27.7723 33.3139 27.3777 33.6339 27.0577C33.9539 26.7377 34.3379 26.455 34.7859 26.2097C35.2339 25.9537 35.6819 25.7563 36.1299 25.6177C36.5886 25.4683 37.0686 25.3457 37.5699 25.2497C38.0713 25.1537 38.5193 25.0897 38.9139 25.0577C39.3086 25.0257 39.6873 25.0097 40.0499 25.0097V24.7217C40.0499 24.071 39.8739 23.6123 39.5219 23.3457C39.1806 23.079 38.6259 22.9457 37.8579 22.9457C37.1966 22.9457 36.5086 23.0257 35.7939 23.1857C35.0793 23.335 34.5193 23.5163 34.1139 23.7297L33.0899 21.5537C33.8153 21.0843 34.7593 20.6737 35.9219 20.3217C37.0846 19.959 38.2686 19.7777 39.4739 19.7777C40.5406 19.7777 41.4206 19.8843 42.1139 20.0977C42.8073 20.3003 43.3673 20.6523 43.7939 21.1537C44.2313 21.6443 44.5406 22.2737 44.7219 23.0417C44.9033 23.799 44.9939 24.7643 44.9939 25.9377V32.4497L45.4419 33.6977H41.0579L40.5459 32.2737ZM39.2819 31.2177C39.4206 31.2177 39.5486 31.191 39.6659 31.1377C39.7939 31.0737 39.8899 31.015 39.9539 30.9617C40.0179 30.8977 40.0499 30.8657 40.0499 30.8657V27.0257C39.3993 27.0257 38.8819 27.207 38.4979 27.5697C38.1139 27.9217 37.9219 28.471 37.9219 29.2177C37.9219 30.551 38.3753 31.2177 39.2819 31.2177ZM54.6082 33.6977H49.4402V23.3457L48.4802 22.7537V20.9457L51.9202 20.0977H53.2162L53.6802 23.9057C54.1175 21.2923 55.5202 19.9857 57.8882 19.9857C58.1549 19.9857 58.4322 20.0337 58.7202 20.1297L58.1762 25.8257C57.9522 25.623 57.4615 25.5217 56.7042 25.5217C55.6162 25.5217 54.9175 25.8097 54.6082 26.3857V33.6977ZM69.2991 32.2737L69.1391 32.4497C69.0324 32.5777 68.8671 32.727 68.6431 32.8977C68.4297 33.0683 68.1791 33.239 67.8911 33.4097C67.6137 33.5803 67.2724 33.7243 66.8671 33.8417C66.4617 33.9697 66.0457 34.0337 65.6191 34.0337C62.7391 34.0337 61.2991 32.6097 61.2991 29.7617C61.2991 29.207 61.4004 28.7003 61.6031 28.2417C61.8057 27.7723 62.0671 27.3777 62.3871 27.0577C62.7071 26.7377 63.0911 26.455 63.5391 26.2097C63.9871 25.9537 64.4351 25.7563 64.8831 25.6177C65.3417 25.4683 65.8217 25.3457 66.3231 25.2497C66.8244 25.1537 67.2724 25.0897 67.6671 25.0577C68.0617 25.0257 68.4404 25.0097 68.8031 25.0097V24.7217C68.8031 24.071 68.6271 23.6123 68.2751 23.3457C67.9337 23.079 67.3791 22.9457 66.6111 22.9457C65.9497 22.9457 65.2617 23.0257 64.5471 23.1857C63.8324 23.335 63.2724 23.5163 62.8671 23.7297L61.8431 21.5537C62.5684 21.0843 63.5124 20.6737 64.6751 20.3217C65.8377 19.959 67.0217 19.7777 68.2271 19.7777C69.2937 19.7777 70.1737 19.8843 70.8671 20.0977C71.5604 20.3003 72.1204 20.6523 72.5471 21.1537C72.9844 21.6443 73.2937 22.2737 73.4751 23.0417C73.6564 23.799 73.7471 24.7643 73.7471 25.9377V32.4497L74.1951 33.6977H69.8111L69.2991 32.2737ZM68.0351 31.2177C68.1737 31.2177 68.3017 31.191 68.4191 31.1377C68.5471 31.0737 68.6431 31.015 68.7071 30.9617C68.7711 30.8977 68.8031 30.8657 68.8031 30.8657V27.0257C68.1524 27.0257 67.6351 27.207 67.2511 27.5697C66.8671 27.9217 66.6751 28.471 66.6751 29.2177C66.6751 30.551 67.1284 31.2177 68.0351 31.2177Z" fill="#D10024"/>
<path d="M95.1951 34.336C94.3737 34.336 93.6057 34.2613 92.8911 34.112C92.1871 33.9733 91.5951 33.7867 91.1151 33.552C90.6351 33.3173 90.2404 33.0933 89.9311 32.88C89.6324 32.6667 89.3817 32.4533 89.1791 32.24L89.5791 28.352C90.0164 28.9387 90.6031 29.4507 91.3391 29.888C92.0751 30.3147 92.8697 30.528 93.7231 30.528C94.5764 30.528 95.1897 30.4373 95.5631 30.256C95.9471 30.0747 96.1391 29.744 96.1391 29.264C96.1391 28.752 95.9204 28.3147 95.4831 27.952C95.0564 27.5893 94.3151 27.152 93.2591 26.64C92.8751 26.448 92.5497 26.2773 92.2831 26.128C92.0164 25.968 91.6591 25.712 91.2111 25.36C90.7737 24.9973 90.4164 24.624 90.1391 24.24C89.8617 23.8453 89.6164 23.344 89.4031 22.736C89.1897 22.1173 89.0831 21.456 89.0831 20.752C89.0831 16.944 91.2324 15.04 95.5311 15.04C96.2137 15.04 96.8537 15.1147 97.4511 15.264C98.0591 15.4027 98.5337 15.5573 98.8751 15.728C99.2164 15.8987 99.5257 16.1013 99.8031 16.336C100.091 16.56 100.272 16.72 100.347 16.816C100.422 16.9013 100.475 16.9707 100.507 17.024L99.7071 20.112C99.2911 19.6213 98.7684 19.2587 98.1391 19.024C97.5204 18.7787 96.9284 18.656 96.3631 18.656C94.9977 18.656 94.3151 19.0827 94.3151 19.936C94.3151 20.16 94.3577 20.3627 94.4431 20.544C94.5284 20.7253 94.6671 20.8907 94.8591 21.04C95.0511 21.1893 95.2271 21.3173 95.3871 21.424C95.5577 21.5307 95.7871 21.664 96.0751 21.824C96.3737 21.9733 96.5977 22.096 96.7471 22.192C98.3044 22.8533 99.4457 23.6373 100.171 24.544C100.907 25.4507 101.275 26.5547 101.275 27.856C101.275 29.968 100.752 31.5787 99.7071 32.688C98.6724 33.7867 97.1684 34.336 95.1951 34.336ZM108.266 34H102.97V15.248H108.266V22.672H112.378V15.248H117.674V34H112.378V26.352H108.266V34ZM125.223 26.752C125.223 28.5227 125.356 29.7547 125.623 30.448C125.9 31.1413 126.38 31.488 127.063 31.488C127.564 31.488 127.943 31.3653 128.199 31.12C128.455 30.864 128.647 30.3467 128.775 29.568C128.913 28.7787 128.983 27.6 128.983 26.032V22.176C128.983 20.6507 128.833 19.5147 128.535 18.768C128.236 18.0213 127.745 17.648 127.063 17.648C126.38 17.648 125.9 18.016 125.623 18.752C125.356 19.4773 125.223 20.8053 125.223 22.736V26.752ZM126.727 34.336C125.841 34.336 125.041 34.256 124.327 34.096C123.623 33.936 123.015 33.712 122.503 33.424C121.991 33.136 121.543 32.768 121.159 32.32C120.785 31.872 120.481 31.392 120.247 30.88C120.023 30.368 119.841 29.7707 119.703 29.088C119.564 28.3947 119.468 27.7067 119.415 27.024C119.361 26.3307 119.335 25.552 119.335 24.688C119.335 23.408 119.399 22.2933 119.527 21.344C119.665 20.3947 119.916 19.504 120.279 18.672C120.641 17.8293 121.121 17.1467 121.719 16.624C122.327 16.1013 123.105 15.6907 124.055 15.392C125.015 15.0933 126.145 14.944 127.447 14.944C128.343 14.944 129.148 15.0293 129.863 15.2C130.577 15.36 131.191 15.584 131.703 15.872C132.215 16.16 132.657 16.5333 133.031 16.992C133.415 17.4507 133.719 17.9413 133.943 18.464C134.177 18.976 134.364 19.5787 134.503 20.272C134.641 20.9653 134.737 21.6533 134.791 22.336C134.844 23.0187 134.871 23.792 134.871 24.656C134.871 25.936 134.801 27.0507 134.663 28C134.524 28.9493 134.273 29.84 133.911 30.672C133.548 31.4933 133.063 32.1653 132.455 32.688C131.847 33.2 131.063 33.6053 130.103 33.904C129.153 34.192 128.028 34.336 126.727 34.336ZM141.829 34H136.533V15.248H138.645C139.21 15.248 140.064 15.2267 141.205 15.184C142.346 15.1307 143.285 15.104 144.021 15.104C146.09 15.104 147.658 15.6533 148.725 16.752C149.792 17.8507 150.325 19.4987 150.325 21.696C150.325 23.0187 150.149 24.224 149.797 25.312C149.456 26.3893 148.992 27.2747 148.405 27.968C147.818 28.6613 147.152 29.1947 146.405 29.568C145.658 29.9413 144.869 30.128 144.037 30.128C143.93 30.128 143.818 30.128 143.701 30.128C143.594 30.128 143.493 30.128 143.397 30.128C143.312 30.1173 143.205 30.112 143.077 30.112C142.96 30.1013 142.864 30.096 142.789 30.096C142.725 30.0853 142.629 30.08 142.501 30.08C142.384 30.0693 142.304 30.064 142.261 30.064C142.218 30.064 142.138 30.0587 142.021 30.048C141.904 30.0373 141.84 30.032 141.829 30.032V34ZM145.077 20.992C145.077 20.2027 144.864 19.5627 144.437 19.072C144.01 18.5813 143.397 18.336 142.597 18.336H141.829V26.656H142.421C143.264 26.656 143.914 26.3733 144.373 25.808C144.842 25.2427 145.077 24.4267 145.077 23.36V20.992Z" fill="white"/>
</svg>
